Amstelvar-Italic-3.ufo
<glyph name="quotedbl" format="2">
  <advance width="974"/>
  <unicode hex="0022"/>
  <outline>
    <contour>
      <point x="331" y="964" type="line"/>
      <point x="345" y="1423" type="line"/>
      <point x="354" y="1471"/>
      <point x="412" y="1558"/>
      <point x="475" y="1558" type="qcurve" smooth="yes"/>
      <point x="534" y="1558"/>
      <point x="572" y="1471"/>
      <point x="563" y="1423" type="qcurve"/>
      <point x="385" y="964" type="line"/>
    </contour>
    <contour>
      <point x="701" y="964" type="line"/>
      <point x="715" y="1423" type="line"/>
      <point x="724" y="1471"/>
      <point x="782" y="1558"/>
      <point x="845" y="1558" type="qcurve" smooth="yes"/>
      <point x="905" y="1558"/>
      <point x="942" y="1471"/>
      <point x="933" y="1423" type="qcurve"/>
      <point x="755" y="964" type="line"/>
    </contour>
  </outline>
</glyph>
<glyph name="asterisk" format="2">
  <advance width="858"/>
  <unicode hex="002A"/>
  <outline>
    <contour>
      <point x="410" y="725" type="qcurve" smooth="yes"/>
      <point x="361" y="740"/>
      <point x="325" y="823"/>
      <point x="353" y="867" type="qcurve" smooth="yes"/>
      <point x="495" y="1097" type="line"/>
      <point x="494" y="1101" type="line"/>
      <point x="254" y="966" type="line" smooth="yes"/>
      <point x="217" y="943"/>
      <point x="126" y="973"/>
      <point x="114" y="1029" type="qcurve" smooth="yes"/>
      <point x="99" y="1083"/>
      <point x="167" y="1151"/>
      <point x="208" y="1148" type="qcurve" smooth="yes"/>
      <point x="481" y="1143" type="line"/>
      <point x="481" y="1147" type="line"/>
      <point x="249" y="1290" type="line" smooth="yes"/>
      <point x="212" y="1309"/>
      <point x="191" y="1403"/>
      <point x="233" y="1442" type="qcurve" smooth="yes"/>
      <point x="273" y="1480"/>
      <point x="364" y="1458"/>
      <point x="385" y="1419" type="qcurve" smooth="yes"/>
      <point x="514" y="1179" type="line"/>
      <point x="519" y="1181" type="line"/>
      <point x="521" y="1449" type="line" smooth="yes"/>
      <point x="522" y="1505"/>
      <point x="596" y="1555"/>
      <point x="645" y="1542" type="qcurve" smooth="yes"/>
      <point x="695" y="1526"/>
      <point x="730" y="1443"/>
      <point x="702" y="1398" type="qcurve" smooth="yes"/>
      <point x="560" y="1169" type="line"/>
      <point x="563" y="1164" type="line"/>
      <point x="796" y="1301" type="line" smooth="yes"/>
      <point x="833" y="1323"/>
      <point x="923" y="1294"/>
      <point x="938" y="1238" type="qcurve" smooth="yes"/>
      <point x="952" y="1185"/>
      <point x="886" y="1116"/>
      <point x="842" y="1120" type="qcurve" smooth="yes"/>
      <point x="575" y="1124" type="line"/>
      <point x="574" y="1118" type="line"/>
      <point x="806" y="977" type="line" smooth="yes"/>
      <point x="844" y="957"/>
      <point x="865" y="863"/>
      <point x="824" y="824" type="qcurve" smooth="yes"/>
      <point x="783" y="784"/>
      <point x="690" y="808"/>
      <point x="671" y="846" type="qcurve" smooth="yes"/>
      <point x="541" y="1087" type="line"/>
      <point x="538" y="1085" type="line"/>
      <point x="534" y="816" type="line" smooth="yes"/>
      <point x="533" y="763"/>
      <point x="466" y="709"/>
    </contour>
  </outline>
</glyph>
<glyph name="period" format="2">
  <advance width="584"/>
  <unicode hex="002E"/>
  <outline>
    <contour>
      <point x="55" y="121" type="qcurve" smooth="yes"/>
      <point x="55" y="176"/>
      <point x="132" y="258"/>
      <point x="192" y="258" type="qcurve" smooth="yes"/>
      <point x="252" y="258"/>
      <point x="329" y="176"/>
      <point x="329" y="121" type="qcurve" smooth="yes"/>
      <point x="329" y="67"/>
      <point x="252" y="-15"/>
      <point x="192" y="-15" type="qcurve" smooth="yes"/>
      <point x="132" y="-15"/>
      <point x="55" y="67"/>
    </contour>
  </outline>
</glyph>
<glyph name="at" format="2">
  <advance width="1709"/>
  <unicode hex="0040"/>
  <outline>
    <contour>
      <point x="423" y="566" type="qcurve" smooth="yes"/>
      <point x="423" y="810"/>
      <point x="820" y="1170"/>
      <point x="1013" y="1170" type="qcurve" smooth="yes"/>
      <point x="1029" y="1170"/>
      <point x="1061" y="1164"/>
      <point x="1076" y="1159" type="qcurve"/>
      <point x="1170" y="1210" type="line"/>
      <point x="1212" y="1210" type="line"/>
      <point x="1270" y="1097" type="line"/>
      <point x="1156" y="663" type="line"/>
      <point x="1125" y="492" type="line"/>
      <point x="1133" y="474"/>
      <point x="1158" y="465"/>
      <point x="1192" y="465" type="qcurve" smooth="yes"/>
      <point x="1313" y="465"/>
      <point x="1485" y="667"/>
      <point x="1522" y="858" type="qcurve" smooth="yes"/>
      <point x="1565" y="1082"/>
      <point x="1300" y="1384"/>
      <point x="993" y="1384" type="qcurve" smooth="yes"/>
      <point x="677" y="1384"/>
      <point x="277" y="1033"/>
      <point x="221" y="737" type="qcurve" smooth="yes"/>
      <point x="172" y="471"/>
      <point x="457" y="99"/>
      <point x="743" y="99" type="qcurve" smooth="yes"/>
      <point x="883" y="99"/>
      <point x="1074" y="163"/>
      <point x="1125" y="195" type="qcurve"/>
      <point x="1174" y="108" type="line"/>
      <point x="1105" y="57"/>
      <point x="868" y="-30"/>
      <point x="713" y="-30" type="qcurve" smooth="yes"/>
      <point x="375" y="-30"/>
      <point x="8" y="399"/>
      <point x="71" y="725" type="qcurve" smooth="yes"/>
      <point x="136" y="1058"/>
      <point x="655" y="1520"/>
      <point x="1019" y="1520" type="qcurve" smooth="yes"/>
      <point x="1359" y="1520"/>
      <point x="1730" y="1172"/>
      <point x="1670" y="863" type="qcurve" smooth="yes"/>
      <point x="1624" y="630"/>
      <point x="1325" y="354"/>
      <point x="1182" y="354" type="qcurve" smooth="yes"/>
      <point x="1107" y="354"/>
      <point x="991" y="446"/>
      <point x="982" y="507" type="qcurve"/>
      <point x="874" y="412"/>
      <point x="690" y="356"/>
      <point x="625" y="356" type="qcurve" smooth="yes"/>
      <point x="518" y="356"/>
      <point x="423" y="477"/>
    </contour>
    <contour>
      <point x="574" y="608" type="qcurve" smooth="yes"/>
      <point x="574" y="547"/>
      <point x="633" y="467"/>
      <point x="696" y="467" type="qcurve" smooth="yes"/>
      <point x="804" y="467"/>
      <point x="1006" y="620"/>
      <point x="1039" y="763" type="qcurve" smooth="yes"/>
      <point x="1094" y="1003" type="line"/>
      <point x="1091" y="1036"/>
      <point x="1022" y="1057"/>
      <point x="984" y="1057" type="qcurve" smooth="yes"/>
      <point x="801" y="1057"/>
      <point x="574" y="798"/>
    </contour>
  </outline>
</glyph>
<glyph name="T" format="1">
  <advance width="1169.0"/>
  <unicode hex="0054"/>
  <outline>
    <contour>
      <point x="147" y="1099" type="line"/>
      <point x="230" y="1500" type="line"/>
      <point x="1327" y="1500" type="line"/>
      <point x="1244" y="1099" type="line"/>
      <point x="1144" y="1099" type="line"/>
      <point x="1172" y="1382" type="line"/>
      <point x="854" y="1382" type="line"/>
      <point x="840" y="1362" type="line"/>
      <point x="721" y="754" type="line"/>
      <point x="601" y="136" type="line"/>
      <point x="791" y="100" type="line"/>
      <point x="782" y="0" type="line"/>
      <point x="223" y="0" type="line"/>
      <point x="232" y="100" type="line"/>
      <point x="438" y="136" type="line"/>
      <point x="561" y="754" type="line"/>
      <point x="677" y="1362" type="line"/>
      <point x="673" y="1382" type="line"/>
      <point x="339" y="1382" type="line"/>
      <point x="247" y="1099" type="line"/>
    </contour>
    <contour>
      <point x="494.0" y="0.0" type="move" name="bottom"/>
    </contour>
    <contour>
      <point x="784.0" y="1500.0" type="move" name="top"/>
    </contour>
  </outline>
</glyph>
<glyph name="V" format="2">
  <advance width="1151"/>
  <unicode hex="0056"/>
  <outline>
    <contour>
      <point x="118" y="1386" type="line"/>
      <point x="139" y="1500" type="line"/>
      <point x="609" y="1500" type="line"/>
      <point x="588" y="1386" type="line"/>
      <point x="428" y="1365" type="line"/>
      <point x="459" y="801" type="line"/>
      <point x="491" y="286" type="line"/>
      <point x="510" y="286" type="line"/>
      <point x="788" y="805" type="line"/>
      <point x="1077" y="1372" type="line"/>
      <point x="914" y="1386" type="line"/>
      <point x="927" y="1500" type="line"/>
      <point x="1386" y="1500" type="line"/>
      <point x="1373" y="1386" type="line"/>
      <point x="1205" y="1367" type="line"/>
      <point x="884" y="754" type="line"/>
      <point x="474" y="-8" type="line"/>
      <point x="363" y="-8" type="line"/>
      <point x="302" y="740" type="line"/>
      <point x="261" y="1367" type="line"/>
    </contour>
  </outline>
</glyph>
<glyph name="bracketleft" format="2">
  <advance width="636"/>
  <unicode hex="005B"/>
  <outline>
    <contour>
      <point x="124" y="508" type="line"/>
      <point x="278" y="1362" type="line"/>
      <point x="263" y="1382" type="line"/>
      <point x="286" y="1500" type="line"/>
      <point x="744" y="1500" type="line"/>
      <point x="720" y="1381" type="line"/>
      <point x="458" y="1362" type="line"/>
      <point x="280" y="508" type="line"/>
      <point x="127" y="-342" type="line"/>
      <point x="382" y="-361" type="line"/>
      <point x="359" y="-480" type="line"/>
      <point x="-99" y="-480" type="line"/>
      <point x="-76" y="-362" type="line"/>
      <point x="-53" y="-342" type="line"/>
    </contour>
  </outline>
</glyph>
<glyph name="backslash" format="2">
  <advance width="656"/>
  <unicode hex="005C"/>
  <outline>
    <contour>
      <point x="138" y="1522" type="line"/>
      <point x="267" y="1555" type="line"/>
      <point x="558" y="-118" type="line"/>
      <point x="429" y="-151" type="line"/>
    </contour>
  </outline>
</glyph>
<glyph name="grave" format="1">
  <advance width="1024.0"/>
  <unicode hex="0060"/>
  <outline>
    <contour>
      <point x="460" y="1448" type="qcurve" smooth="yes"/>
      <point x="460" y="1484"/>
      <point x="510" y="1534"/>
      <point x="550" y="1534" type="qcurve" smooth="yes"/>
      <point x="588" y="1534"/>
      <point x="642" y="1480"/>
      <point x="668" y="1446" type="qcurve" smooth="yes"/>
      <point x="856" y="1202" type="line"/>
      <point x="782" y="1132" type="line"/>
      <point x="528" y="1342" type="line" smooth="yes"/>
      <point x="496" y="1369"/>
      <point x="460" y="1414"/>
    </contour>
    <contour>
      <point x="841" y="1134" type="move" name="top"/>
    </contour>
  </outline>
</glyph>
<glyph name="c" format="2">
  <advance width="938"/>
  <unicode hex="0063"/>
  <guideline x="450" y="0" angle="79.0" identifier="NRMkUVgtUn"/>
  <anchor x="640" y="1000" name="top"/>
  <anchor x="440" y="0" name="bottom"/>
  <outline>
    <contour>
      <point x="90" y="503" type="qcurve" smooth="yes"/>
      <point x="148" y="740"/>
      <point x="514" y="1030"/>
      <point x="698" y="1030" type="qcurve" smooth="yes"/>
      <point x="794" y="1030"/>
      <point x="927" y="937"/>
      <point x="927" y="849" type="qcurve" smooth="yes"/>
      <point x="927" y="772"/>
      <point x="850" y="652"/>
      <point x="784" y="639" type="qcurve"/>
      <point x="761" y="666" type="line"/>
      <point x="761" y="839" type="line" smooth="yes"/>
      <point x="761" y="864"/>
      <point x="704" y="901"/>
      <point x="643" y="901" type="qcurve" smooth="yes"/>
      <point x="506" y="901"/>
      <point x="292" y="688"/>
      <point x="248" y="497" type="qcurve" smooth="yes"/>
      <point x="210" y="334"/>
      <point x="312" y="115"/>
      <point x="463" y="115" type="qcurve" smooth="yes"/>
      <point x="578" y="115"/>
      <point x="759" y="223"/>
      <point x="821" y="312" type="qcurve"/>
      <point x="879" y="248" type="line"/>
      <point x="879" y="219" type="line"/>
      <point x="815" y="133"/>
      <point x="558" y="-21"/>
      <point x="406" y="-21" type="qcurve" smooth="yes"/>
      <point x="210" y="-21"/>
      <point x="34" y="274"/>
    </contour>
  </outline>
</glyph>
<glyph name="f" format="2">
  <advance width="601"/>
  <unicode hex="0066"/>
  <outline>
    <contour>
      <point x="-340" y="-298" type="qcurve" smooth="yes"/>
      <point x="-340" y="-238"/>
      <point x="-262" y="-152"/>
      <point x="-217" y="-141" type="qcurve"/>
      <point x="-163" y="-185" type="line"/>
      <point x="-163" y="-235" type="line"/>
      <point x="-187" y="-235"/>
      <point x="-214" y="-258"/>
      <point x="-214" y="-280" type="qcurve" smooth="yes"/>
      <point x="-214" y="-302"/>
      <point x="-175" y="-335"/>
      <point x="-129" y="-335" type="qcurve" smooth="yes"/>
      <point x="-25" y="-335"/>
      <point x="105" y="-164"/>
      <point x="139" y="39" type="qcurve" smooth="yes"/>
      <point x="283" y="905" type="line"/>
      <point x="295" y="942" type="line"/>
      <point x="362" y="1269" type="line" smooth="yes"/>
      <point x="398" y="1445"/>
      <point x="556" y="1582"/>
      <point x="656" y="1582" type="qcurve" smooth="yes"/>
      <point x="743" y="1582"/>
      <point x="849" y="1511"/>
      <point x="849" y="1461" type="qcurve" smooth="yes"/>
      <point x="849" y="1420"/>
      <point x="814" y="1369"/>
      <point x="781" y="1369" type="qcurve" smooth="yes"/>
      <point x="763" y="1369"/>
      <point x="741" y="1382"/>
      <point x="741" y="1395" type="qcurve" smooth="yes"/>
      <point x="741" y="1404"/>
      <point x="746" y="1411"/>
      <point x="746" y="1419" type="qcurve" smooth="yes"/>
      <point x="746" y="1431"/>
      <point x="706" y="1448"/>
      <point x="662" y="1448" type="qcurve" smooth="yes"/>
      <point x="614" y="1448"/>
      <point x="514" y="1363"/>
      <point x="499" y="1263" type="qcurve" smooth="yes"/>
      <point x="449" y="938" type="line"/>
      <point x="448" y="913" type="line"/>
      <point x="292" y="82" type="line" smooth="yes"/>
      <point x="248" y="-151"/>
      <point x="46" y="-464"/>
      <point x="-143" y="-464" type="qcurve" smooth="yes"/>
      <point x="-240" y="-464"/>
      <point x="-340" y="-365"/>
    </contour>
    <contour>
      <point x="134" y="864" type="line"/>
      <point x="128" y="938" type="line"/>
      <point x="317" y="980" type="line"/>
      <point x="649" y="980" type="line"/>
      <point x="649" y="878" type="line"/>
      <point x="394" y="865" type="line"/>
      <point x="337" y="847" type="line"/>
    </contour>
  </outline>
</glyph>
<glyph name="g" format="2">
  <advance width="988"/>
  <unicode hex="0067"/>
  <guideline x="550" y="1000" angle="79.0" identifier="P2iG04Woq9"/>
  <anchor x="560" y="1000" name="top"/>
  <outline>
    <contour>
      <point x="13" y="274" type="qcurve"/>
      <point x="13" y="574"/>
      <point x="445" y="985"/>
      <point x="655" y="985" type="qcurve" smooth="yes"/>
      <point x="673" y="985"/>
      <point x="708" y="978"/>
      <point x="724" y="971" type="qcurve"/>
      <point x="827" y="1034" type="line"/>
      <point x="873" y="1034" type="line"/>
      <point x="936" y="895" type="line"/>
      <point x="845" y="506" type="line"/>
      <point x="782" y="184" type="line" smooth="yes"/>
      <point x="722" y="-125"/>
      <point x="413" y="-464"/>
      <point x="213" y="-464" type="qcurve" smooth="yes"/>
      <point x="96" y="-464"/>
      <point x="-14" y="-361"/>
      <point x="-14" y="-289" type="qcurve" smooth="yes"/>
      <point x="-14" y="-224"/>
      <point x="81" y="-143"/>
      <point x="127" y="-132" type="qcurve"/>
      <point x="182" y="-177" type="line"/>
      <point x="182" y="-227" type="line"/>
      <point x="156" y="-227"/>
      <point x="126" y="-257"/>
      <point x="126" y="-279" type="qcurve" smooth="yes"/>
      <point x="126" y="-304"/>
      <point x="177" y="-343"/>
      <point x="236" y="-343" type="qcurve" smooth="yes"/>
      <point x="335" y="-343"/>
      <point x="551" y="-149"/>
      <point x="604" y="83" type="qcurve" smooth="yes"/>
      <point x="639" y="236" type="line"/>
      <point x="512" y="102"/>
      <point x="305" y="16"/>
      <point x="234" y="16" type="qcurve" smooth="yes"/>
      <point x="117" y="16"/>
      <point x="13" y="165"/>
    </contour>
    <contour>
      <point x="182" y="326" type="qcurve" smooth="yes"/>
      <point x="182" y="251"/>
      <point x="242" y="153"/>
      <point x="311" y="153" type="qcurve" smooth="yes"/>
      <point x="429" y="153"/>
      <point x="647" y="340"/>
      <point x="686" y="517" type="qcurve" smooth="yes"/>
      <point x="744" y="780" type="line"/>
      <point x="741" y="820"/>
      <point x="665" y="846"/>
      <point x="624" y="846" type="qcurve" smooth="yes"/>
      <point x="425" y="846"/>
      <point x="182" y="545"/>
    </contour>
  </outline>
</glyph>
<glyph name="h" format="2">
  <advance width="1157"/>
  <unicode hex="0068"/>
  <guideline x="130" y="0" angle="79.0" identifier="Q2FtUewu9M"/>
  <anchor x="420" y="1500" name="top"/>
  <outline>
    <contour>
      <point x="102" y="-23" type="line"/>
      <point x="60" y="56" type="line"/>
      <point x="163" y="527" type="line"/>
      <point x="321" y="1404" type="line"/>
      <point x="217" y="1500" type="line"/>
      <point x="245" y="1572" type="line"/>
      <point x="426" y="1602" type="line"/>
      <point x="513" y="1532" type="line"/>
      <point x="330" y="588" type="line"/>
      <point x="245" y="87" type="line"/>
      <point x="276" y="0" type="line"/>
    </contour>
    <contour>
      <point x="313" y="630" type="qcurve"/>
      <point x="292" y="720" type="line"/>
      <point x="357" y="819"/>
      <point x="658" y="1021"/>
      <point x="776" y="1021" type="qcurve" smooth="yes"/>
      <point x="885" y="1021"/>
      <point x="1018" y="878"/>
      <point x="990" y="742" type="qcurve" smooth="yes"/>
      <point x="865" y="134" type="line"/>
      <point x="1001" y="134" type="line"/>
      <point x="1001" y="46" type="line"/>
      <point x="738" y="-14" type="line"/>
      <point x="697" y="75" type="line"/>
      <point x="820" y="702" type="line" smooth="yes"/>
      <point x="836" y="785"/>
      <point x="793" y="877"/>
      <point x="716" y="877" type="qcurve" smooth="yes"/>
      <point x="618" y="877"/>
      <point x="370" y="700"/>
    </contour>
  </outline>
</glyph>
<glyph name="j" format="2">
  <advance width="559"/>
  <unicode hex="006A"/>
  <outline>
    <contour>
      <point x="-327" y="-299" type="qcurve" smooth="yes"/>
      <point x="-327" y="-233"/>
      <point x="-248" y="-155"/>
      <point x="-204" y="-142" type="qcurve"/>
      <point x="-150" y="-186" type="line"/>
      <point x="-150" y="-236" type="line"/>
      <point x="-174" y="-236"/>
      <point x="-201" y="-259"/>
      <point x="-201" y="-279" type="qcurve" smooth="yes"/>
      <point x="-201" y="-302"/>
      <point x="-158" y="-336"/>
      <point x="-114" y="-336" type="qcurve" smooth="yes"/>
      <point x="-1" y="-336"/>
      <point x="159" y="-98"/>
      <point x="176" y="142" type="qcurve"/>
      <point x="136" y="142" type="line"/>
      <point x="103" y="193" type="line"/>
      <point x="171" y="306"/>
      <point x="255" y="651"/>
      <point x="272" y="822" type="qcurve"/>
      <point x="121" y="818" type="line"/>
      <point x="123" y="915" type="line"/>
      <point x="352" y="1001" type="line"/>
      <point x="422" y="1001" type="line"/>
      <point x="491" y="885" type="line"/>
      <point x="430" y="742" type="line"/>
      <point x="313" y="132" type="line"/>
      <point x="274" y="-164"/>
      <point x="59" y="-464"/>
      <point x="-130" y="-464" type="qcurve" smooth="yes"/>
      <point x="-228" y="-464"/>
      <point x="-327" y="-371"/>
    </contour>
    <contour>
      <point x="354" y="1337" type="qcurve" smooth="yes"/>
      <point x="360" y="1396"/>
      <point x="422" y="1460"/>
      <point x="475" y="1460" type="qcurve" smooth="yes"/>
      <point x="524" y="1460"/>
      <point x="578" y="1392"/>
      <point x="572" y="1337" type="qcurve" smooth="yes"/>
      <point x="566" y="1278"/>
      <point x="504" y="1214"/>
      <point x="451" y="1214" type="qcurve" smooth="yes"/>
      <point x="402" y="1214"/>
      <point x="348" y="1282"/>
    </contour>
  </outline>
</glyph>
<glyph name="l" format="1">
  <advance width="537"/>
  <unicode hex="006C"/>
  <outline>
    <contour>
      <point x="111" y="-14" type="line"/>
      <point x="64" y="86" type="line"/>
      <point x="173" y="606" type="line"/>
      <point x="321" y="1408" type="line"/>
      <point x="197" y="1500" type="line"/>
      <point x="225" y="1572" type="line"/>
      <point x="426" y="1606" type="line"/>
      <point x="513" y="1536" type="line"/>
      <point x="331" y="588" type="line"/>
      <point x="248" y="134" type="line"/>
      <point x="444" y="154" type="line"/>
      <point x="444" y="66" type="line"/>
    </contour>
    <contour>
      <point x="430" y="1500" type="move" name="top"/>
    </contour>
    <contour>
      <point x="570" y="700" type="move" name="dot"/>
    </contour>
    <contour>
      <point x="140" y="0" type="move" name="bottom"/>
    </contour>
    <contour>
      <point x="728" y="1500" type="move" name="caron.alt"/>
    </contour>
  </outline>
</glyph>
<glyph name="n" format="2">
  <advance width="1173"/>
  <unicode hex="006E"/>
  <guideline x="710" y="1000" angle="79.0" identifier="fI0xi51wWb"/>
  <anchor x="720" y="1000" name="top"/>
  <anchor x="530" y="0" name="bottom"/>
  <outline>
    <contour>
      <point x="122" y="-23" type="line"/>
      <point x="80" y="56" type="line"/>
      <point x="183" y="527" type="line"/>
      <point x="235" y="822" type="line"/>
      <point x="93" y="818" type="line"/>
      <point x="95" y="915" type="line"/>
      <point x="314" y="1000" type="line"/>
      <point x="360" y="1000" type="line"/>
      <point x="393" y="736" type="line"/>
      <point x="360" y="588" type="line"/>
      <point x="255" y="83" type="line"/>
      <point x="286" y="0" type="line"/>
    </contour>
    <contour>
      <point x="758" y="-14" type="line"/>
      <point x="717" y="75" type="line"/>
      <point x="840" y="702" type="line" smooth="yes"/>
      <point x="856" y="785"/>
      <point x="813" y="877"/>
      <point x="736" y="877" type="qcurve" smooth="yes"/>
      <point x="638" y="877"/>
      <point x="390" y="700"/>
      <point x="333" y="630" type="qcurve"/>
      <point x="312" y="720" type="line"/>
      <point x="377" y="819"/>
      <point x="678" y="1021"/>
      <point x="796" y="1021" type="qcurve" smooth="yes"/>
      <point x="905" y="1021"/>
      <point x="1038" y="878"/>
      <point x="1010" y="742" type="qcurve" smooth="yes"/>
      <point x="885" y="134" type="line"/>
      <point x="1021" y="134" type="line"/>
      <point x="1021" y="46" type="line"/>
    </contour>
  </outline>
</glyph>
<glyph name="r" format="2">
  <advance width="783"/>
  <unicode hex="0072"/>
  <guideline x="170" y="0" angle="79.0" identifier="P35jP8CCy2"/>
  <anchor x="500" y="1000" name="top"/>
  <anchor x="170" y="0" name="bottom"/>
  <outline>
    <contour>
      <point x="126" y="-14" type="line"/>
      <point x="85" y="75" type="line"/>
      <point x="190" y="527" type="line"/>
      <point x="228" y="822" type="line"/>
      <point x="86" y="818" type="line"/>
      <point x="88" y="915" type="line"/>
      <point x="307" y="1001" type="line"/>
      <point x="363" y="1001" type="line"/>
      <point x="380" y="807" type="line"/>
      <point x="395" y="741" type="line"/>
      <point x="269" y="137" type="line"/>
      <point x="400" y="106" type="line"/>
      <point x="400" y="18" type="line"/>
    </contour>
    <contour>
      <point x="665" y="648" type="line"/>
      <point x="665" y="845" type="line"/>
      <point x="567" y="845"/>
      <point x="389" y="737"/>
      <point x="333" y="650" type="qcurve"/>
      <point x="312" y="720" type="line"/>
      <point x="385" y="847"/>
      <point x="607" y="1013"/>
      <point x="718" y="1013" type="qcurve" smooth="yes"/>
      <point x="773" y="1013"/>
      <point x="838" y="980"/>
      <point x="838" y="937" type="qcurve" smooth="yes"/>
      <point x="838" y="853"/>
      <point x="756" y="648"/>
      <point x="700" y="648" type="qcurve" smooth="yes"/>
    </contour>
  </outline>
</glyph>
<glyph name="s" format="2">
  <advance width="839"/>
  <unicode hex="0073"/>
  <guideline x="530" y="1000" angle="79.0" identifier="UIBMkLjIM1"/>
  <anchor x="520" y="1000" name="top"/>
  <anchor x="360" y="0" name="bottom"/>
  <outline>
    <contour>
      <point x="61" y="210" type="qcurve" smooth="yes"/>
      <point x="61" y="290"/>
      <point x="146" y="380"/>
      <point x="203" y="380" type="qcurve" smooth="yes"/>
      <point x="229" y="380" type="line"/>
      <point x="229" y="195" type="line" smooth="yes"/>
      <point x="229" y="148"/>
      <point x="300" y="98"/>
      <point x="381" y="98" type="qcurve" smooth="yes"/>
      <point x="477" y="98"/>
      <point x="604" y="187"/>
      <point x="604" y="261" type="qcurve" smooth="yes"/>
      <point x="604" y="327"/>
      <point x="495" y="437"/>
      <point x="403" y="486" type="qcurve" smooth="yes"/>
      <point x="284" y="550"/>
      <point x="174" y="679"/>
      <point x="175" y="766" type="qcurve" smooth="yes"/>
      <point x="176" y="871"/>
      <point x="369" y="1028"/>
      <point x="531" y="1028" type="qcurve" smooth="yes"/>
      <point x="650" y="1028"/>
      <point x="781" y="917"/>
      <point x="781" y="841" type="qcurve" smooth="yes"/>
      <point x="781" y="777"/>
      <point x="718" y="667"/>
      <point x="648" y="667" type="qcurve" smooth="yes"/>
      <point x="621" y="667" type="line"/>
      <point x="621" y="822" type="line" smooth="yes"/>
      <point x="621" y="849"/>
      <point x="565" y="911"/>
      <point x="493" y="911" type="qcurve" smooth="yes"/>
      <point x="418" y="911"/>
      <point x="310" y="852"/>
      <point x="310" y="798" type="qcurve" smooth="yes"/>
      <point x="310" y="746"/>
      <point x="405" y="666"/>
      <point x="505" y="609" type="qcurve" smooth="yes"/>
      <point x="602" y="554"/>
      <point x="751" y="407"/>
      <point x="752" y="294" type="qcurve" smooth="yes"/>
      <point x="753" y="159"/>
      <point x="536" y="-15"/>
      <point x="364" y="-15" type="qcurve" smooth="yes"/>
      <point x="215" y="-15"/>
      <point x="61" y="127"/>
    </contour>
  </outline>
</glyph>
<glyph name="currency" format="2">
  <advance width="1368"/>
  <unicode hex="00A4"/>
  <outline>
    <contour>
      <point x="216" y="800" type="qcurve" smooth="yes"/>
      <point x="216" y="995"/>
      <point x="473" y="1270"/>
      <point x="682" y="1270" type="qcurve" smooth="yes"/>
      <point x="892" y="1270"/>
      <point x="1152" y="1013"/>
      <point x="1152" y="805" type="qcurve" smooth="yes"/>
      <point x="1152" y="611"/>
      <point x="896" y="330"/>
      <point x="688" y="330" type="qcurve" smooth="yes"/>
      <point x="478" y="330"/>
      <point x="216" y="590"/>
    </contour>
    <contour>
      <point x="382" y="815" type="qcurve" smooth="yes"/>
      <point x="383" y="675"/>
      <point x="547" y="483"/>
      <point x="680" y="483" type="qcurve" smooth="yes"/>
      <point x="825" y="483"/>
      <point x="981" y="658"/>
      <point x="981" y="805" type="qcurve" smooth="yes"/>
      <point x="981" y="938"/>
      <point x="818" y="1112"/>
      <point x="682" y="1112" type="qcurve" smooth="yes"/>
      <point x="536" y="1112"/>
      <point x="381" y="953"/>
    </contour>
    <contour>
      <point x="338" y="1053" type="line"/>
      <point x="103" y="1288" type="line"/>
      <point x="216" y="1408" type="line"/>
      <point x="451" y="1173" type="line"/>
    </contour>
    <contour>
      <point x="1047" y="1042" type="line"/>
      <point x="933" y="1161" type="line"/>
      <point x="1168" y="1396" type="line"/>
      <point x="1282" y="1277" type="line"/>
    </contour>
    <contour>
      <point x="347" y="533" type="line"/>
      <point x="460" y="413" type="line"/>
      <point x="225" y="178" type="line"/>
      <point x="112" y="298" type="line"/>
    </contour>
    <contour>
      <point x="1031" y="544" type="line"/>
      <point x="1266" y="309" type="line"/>
      <point x="1152" y="190" type="line"/>
      <point x="917" y="425" type="line"/>
    </contour>
  </outline>
</glyph>
<glyph name="section" format="1">
  <advance width="1088.0"/>
  <unicode hex="00A7"/>
  <outline>
    <contour>
      <point x="849" y="137" type="qcurve" smooth="yes"/>
      <point x="819" y="-35"/>
      <point x="566" y="-253"/>
      <point x="376" y="-253" type="qcurve" smooth="yes"/>
      <point x="188" y="-253"/>
      <point x="-54" y="-98"/>
      <point x="-54" y="1" type="qcurve" smooth="yes"/>
      <point x="-54" y="57"/>
      <point x="-12" y="162"/>
      <point x="20" y="196" type="qcurve"/>
      <point x="106" y="181" type="line"/>
      <point x="87" y="148"/>
      <point x="75" y="95"/>
      <point x="78" y="24" type="qcurve" smooth="yes"/>
      <point x="80" y="-37"/>
      <point x="226" y="-134"/>
      <point x="385" y="-134" type="qcurve" smooth="yes"/>
      <point x="520" y="-134"/>
      <point x="671" y="-9"/>
      <point x="690" y="95" type="qcurve" smooth="yes"/>
      <point x="712" y="220"/>
      <point x="568" y="330"/>
      <point x="411" y="401" type="qcurve" smooth="yes"/>
      <point x="261" y="469"/>
      <point x="106" y="673"/>
      <point x="131" y="815" type="qcurve" smooth="yes"/>
      <point x="146" y="899"/>
      <point x="251" y="1009"/>
      <point x="320" y="1049" type="qcurve"/>
      <point x="285" y="1086"/>
      <point x="267" y="1179"/>
      <point x="277" y="1239" type="qcurve" smooth="yes"/>
      <point x="297" y="1349"/>
      <point x="515" y="1512"/>
      <point x="668" y="1512" type="qcurve" smooth="yes"/>
      <point x="791" y="1512"/>
      <point x="934" y="1411"/>
      <point x="934" y="1328" type="qcurve" smooth="yes"/>
      <point x="934" y="1283"/>
      <point x="891" y="1190"/>
      <point x="865" y="1169" type="qcurve"/>
      <point x="772" y="1194" type="line"/>
      <point x="786" y="1221"/>
      <point x="803" y="1263"/>
      <point x="801" y="1302" type="qcurve"/>
      <point x="801" y="1345"/>
      <point x="714" y="1401"/>
      <point x="632" y="1401" type="qcurve" smooth="yes"/>
      <point x="541" y="1401"/>
      <point x="445" y="1329"/>
      <point x="435" y="1270" type="qcurve" smooth="yes"/>
      <point x="424" y="1208"/>
      <point x="499" y="1141"/>
      <point x="648" y="1097" type="qcurve" smooth="yes"/>
      <point x="795" y="1054"/>
      <point x="955" y="912"/>
      <point x="929" y="767" type="qcurve" smooth="yes"/>
      <point x="912" y="668"/>
      <point x="766" y="516"/>
      <point x="657" y="485" type="qcurve"/>
      <point x="760" y="430"/>
      <point x="872" y="268"/>
    </contour>
    <contour>
      <point x="276" y="816" type="qcurve" smooth="yes"/>
      <point x="262" y="738"/>
      <point x="365" y="615"/>
      <point x="514" y="551" type="qcurve"/>
      <point x="614" y="551"/>
      <point x="766" y="657"/>
      <point x="780" y="740" type="qcurve" smooth="yes"/>
      <point x="795" y="824"/>
      <point x="671" y="899"/>
      <point x="515" y="947" type="qcurve" smooth="yes"/>
      <point x="489" y="955"/>
      <point x="445" y="971"/>
      <point x="426" y="980" type="qcurve"/>
      <point x="372" y="958"/>
      <point x="286" y="876"/>
    </contour>
  </outline>
</glyph>
<glyph name="ordfeminine" format="2">
  <advance width="833"/>
  <unicode hex="00AA"/>
  <anchor x="460.0" y="1000.0" name="top"/>
  <anchor x="480.0" y="0.0" name="bottom"/>
  <anchor x="800.0" y="0.0" name="ogonek"/>
  <anchor x="533" y="1468" name="top"/>
  <anchor x="370" y="688" name="bottom"/>
  <anchor x="630" y="688" name="ogonek"/>
  <outline>
    <contour>
      <point x="127" y="882" type="qcurve" smooth="yes"/>
      <point x="127" y="1115"/>
      <point x="480" y="1461"/>
      <point x="650" y="1461" type="qcurve" smooth="yes"/>
      <point x="665" y="1461"/>
      <point x="710" y="1451"/>
      <point x="726" y="1442" type="qcurve"/>
      <point x="790" y="1499" type="line"/>
      <point x="827" y="1499" type="line"/>
      <point x="879" y="1391" type="line"/>
      <point x="778" y="974" type="line"/>
      <point x="739" y="787" type="line"/>
      <point x="772" y="702" type="line"/>
      <point x="639" y="681" type="line"/>
      <point x="584" y="805" type="line"/>
      <point x="518" y="745"/>
      <point x="364" y="680"/>
      <point x="307" y="680" type="qcurve" smooth="yes"/>
      <point x="212" y="680"/>
      <point x="127" y="797"/>
    </contour>
    <contour>
      <point x="283" y="928" type="qcurve" smooth="yes"/>
      <point x="283" y="873"/>
      <point x="327" y="799"/>
      <point x="379" y="799" type="qcurve" smooth="yes"/>
      <point x="467" y="799"/>
      <point x="633" y="939"/>
      <point x="660" y="1071" type="qcurve" smooth="yes"/>
      <point x="705" y="1291" type="line"/>
      <point x="702" y="1321"/>
      <point x="645" y="1340"/>
      <point x="615" y="1340" type="qcurve" smooth="yes"/>
      <point x="465" y="1340"/>
      <point x="283" y="1103"/>
    </contour>
  </outline>
</glyph>
<glyph name="macron" format="1">
  <advance width="1024"/>
  <unicode hex="00AF"/>
  <outline>
    <contour>
      <point x="345" y="1202" type="line"/>
      <point x="375" y="1349" type="line"/>
      <point x="967" y="1349" type="line"/>
      <point x="937" y="1202" type="line"/>
    </contour>
    <contour>
      <point x="662" y="1232" type="move" name="top"/>
    </contour>
  </outline>
</glyph>
<glyph name="twosuperior" format="1">
  <advance width="774"/>
  <unicode hex="00B2"/>
  <outline>
    <contour>
      <point x="95" y="713" type="qcurve"/>
      <point x="56" y="786" type="line"/>
      <point x="138" y="830" type="line"/>
      <point x="425" y="1059"/>
      <point x="548" y="1239"/>
      <point x="548" y="1328" type="qcurve" smooth="yes"/>
      <point x="548" y="1368"/>
      <point x="483" y="1418"/>
      <point x="433" y="1418" type="qcurve" smooth="yes"/>
      <point x="376" y="1418"/>
      <point x="282" y="1383"/>
      <point x="239" y="1348" type="qcurve"/>
      <point x="194" y="1407" type="line"/>
      <point x="237" y="1448"/>
      <point x="382" y="1524"/>
      <point x="483" y="1524" type="qcurve" smooth="yes"/>
      <point x="584" y="1524"/>
      <point x="697" y="1424"/>
      <point x="697" y="1340" type="qcurve" smooth="yes"/>
      <point x="697" y="1191"/>
      <point x="337" y="897"/>
      <point x="260" y="846" type="qcurve"/>
      <point x="264" y="841" type="line"/>
      <point x="337" y="862"/>
      <point x="539" y="850"/>
      <point x="621" y="827" type="qcurve"/>
      <point x="601" y="695" type="line"/>
      <point x="484" y="726"/>
      <point x="208" y="749"/>
    </contour>
  </outline>
</glyph>
<glyph name="threesuperior" format="1">
  <advance width="774"/>
  <unicode hex="00B3"/>
  <outline>
    <contour>
      <point x="62" y="720" type="qcurve" smooth="yes"/>
      <point x="62" y="766"/>
      <point x="115" y="842"/>
      <point x="156" y="857" type="qcurve"/>
      <point x="193" y="812" type="line"/>
      <point x="193" y="804" type="line"/>
      <point x="176" y="797"/>
      <point x="153" y="770"/>
      <point x="153" y="739" type="qcurve" smooth="yes"/>
      <point x="153" y="706"/>
      <point x="226" y="662"/>
      <point x="296" y="662" type="qcurve" smooth="yes"/>
      <point x="381" y="662"/>
      <point x="505" y="777"/>
      <point x="505" y="917" type="qcurve" smooth="yes"/>
      <point x="505" y="1009"/>
      <point x="408" y="1086"/>
      <point x="313" y="1089" type="qcurve" smooth="yes"/>
      <point x="278" y="1090" type="line"/>
      <point x="291" y="1171" type="line"/>
      <point x="326" y="1170" type="line" smooth="yes"/>
      <point x="407" y="1168"/>
      <point x="540" y="1267"/>
      <point x="540" y="1334" type="qcurve" smooth="yes"/>
      <point x="540" y="1381"/>
      <point x="476" y="1423"/>
      <point x="429" y="1423" type="qcurve" smooth="yes"/>
      <point x="369" y="1423"/>
      <point x="295" y="1382"/>
      <point x="267" y="1355" type="qcurve"/>
      <point x="226" y="1409" type="line"/>
      <point x="268" y="1457"/>
      <point x="403" y="1526"/>
      <point x="482" y="1526" type="qcurve" smooth="yes"/>
      <point x="563" y="1526"/>
      <point x="669" y="1438"/>
      <point x="669" y="1362" type="qcurve" smooth="yes"/>
      <point x="669" y="1276"/>
      <point x="525" y="1154"/>
      <point x="449" y="1137" type="qcurve"/>
      <point x="448" y="1133" type="line"/>
      <point x="526" y="1120"/>
      <point x="637" y="1016"/>
      <point x="637" y="925" type="qcurve" smooth="yes"/>
      <point x="637" y="771"/>
      <point x="427" y="583"/>
      <point x="298" y="583" type="qcurve" smooth="yes"/>
      <point x="182" y="583"/>
      <point x="62" y="669"/>
    </contour>
  </outline>
</glyph>
<glyph name="acute" format="1">
  <advance width="1024"/>
  <unicode hex="00B4"/>
  <outline>
    <contour>
      <point x="962" y="1448" type="qcurve" smooth="yes"/>
      <point x="962" y="1408"/>
      <point x="891" y="1345"/>
      <point x="842" y="1318" type="qcurve" smooth="yes"/>
      <point x="519" y="1140" type="line"/>
      <point x="454" y="1226" type="line"/>
      <point x="720" y="1458" type="line" smooth="yes"/>
      <point x="764" y="1496"/>
      <point x="832" y="1542"/>
      <point x="872" y="1542" type="qcurve" smooth="yes"/>
      <point x="912" y="1542"/>
      <point x="962" y="1488"/>
    </contour>
    <contour>
      <point x="462" y="1134" type="move" name="top"/>
    </contour>
  </outline>
</glyph>
<glyph name="Oslash" format="1">
  <advance width="1528"/>
  <unicode hex="00D8"/>
  <outline>
    <component base="O"/>
    <component base="diagonalbarO" xOffset="442" yOffset="2"/>
    <contour>
      <point x="890" y="1500" type="move" name="top"/>
    </contour>
  </outline>
</glyph>
<glyph name="thorn" format="2">
  <advance width="1023"/>
  <unicode hex="00FE"/>
  <outline>
    <contour>
      <point x="-13" y="-392" type="line"/>
      <point x="157" y="512" type="line"/>
      <point x="307" y="1410" type="line"/>
      <point x="203" y="1502" type="line"/>
      <point x="231" y="1574" type="line"/>
      <point x="412" y="1608" type="line"/>
      <point x="499" y="1538" type="line"/>
      <point x="372" y="830" type="line"/>
      <point x="459" y="901"/>
      <point x="675" y="1006"/>
      <point x="757" y="1006" type="qcurve" smooth="yes"/>
      <point x="874" y="1006"/>
      <point x="978" y="877"/>
      <point x="978" y="768" type="qcurve" smooth="yes"/>
      <point x="978" y="427"/>
      <point x="541" y="30"/>
      <point x="331" y="30" type="qcurve" smooth="yes"/>
      <point x="300" y="30"/>
      <point x="248" y="41"/>
      <point x="227" y="51" type="qcurve"/>
      <point x="158" y="-316" type="line"/>
      <point x="283" y="-356" type="line"/>
      <point x="255" y="-428" type="line"/>
      <point x="74" y="-462" type="line"/>
    </contour>
    <contour>
      <point x="267" y="269" type="line"/>
      <point x="256" y="208"/>
      <point x="313" y="169"/>
      <point x="362" y="169" type="qcurve" smooth="yes"/>
      <point x="561" y="169"/>
      <point x="809" y="477"/>
      <point x="809" y="716" type="qcurve" smooth="yes"/>
      <point x="809" y="791"/>
      <point x="748" y="858"/>
      <point x="679" y="858" type="qcurve" smooth="yes"/>
      <point x="603" y="858"/>
      <point x="419" y="756"/>
      <point x="346" y="691" type="qcurve"/>
      <point x="309" y="494" type="line"/>
    </contour>
  </outline>
</glyph>
<glyph name="idotless" format="1">
  <advance width="556"/>
  <unicode hex="0131"/>
  <outline>
    <contour>
      <point x="151" y="-21" type="line"/>
      <point x="110" y="68" type="line"/>
      <point x="204" y="527" type="line"/>
      <point x="275" y="820" type="line"/>
      <point x="94" y="818" type="line"/>
      <point x="96" y="915" type="line"/>
      <point x="349" y="1014" type="line"/>
      <point x="419" y="1014" type="line"/>
      <point x="488" y="898" type="line"/>
      <point x="417" y="755" type="line"/>
      <point x="293" y="140" type="line"/>
      <point x="514" y="164" type="line"/>
      <point x="514" y="76" type="line"/>
    </contour>
    <contour>
      <point x="225.0" y="0.0" type="move" name="ogonek"/>
    </contour>
    <contour>
      <point x="180.0" y="0.0" type="move" name="bottom"/>
    </contour>
  </outline>
</glyph>
<glyph name="uhorn" format="1">
  <advance width="1285"/>
  <unicode hex="01B0"/>
  <outline>
    <component base="u"/>
    <component base="horn" xOffset="939" yOffset="12"/>
    <contour>
      <point x="1054.0" y="824.0" type="move" name="horn"/>
    </contour>
  </outline>
</glyph>
<glyph name="primemod" format="2">
  <advance width="600"/>
  <unicode hex="02B9"/>
  <outline>
    <contour>
      <point x="374" y="1502" type="line"/>
      <point x="563" y="1502" type="line"/>
      <point x="392" y="1061" type="line"/>
      <point x="270" y="1066" type="line"/>
    </contour>
  </outline>
</glyph>
<glyph name="breve" format="1">
  <advance width="1024"/>
  <unicode hex="02D8"/>
  <outline>
    <contour>
      <point x="981" y="1492" type="qcurve"/>
      <point x="1058" y="1439" type="line"/>
      <point x="1016" y="1341"/>
      <point x="786" y="1172"/>
      <point x="656" y="1172" type="qcurve" smooth="yes"/>
      <point x="526" y="1172"/>
      <point x="352" y="1326"/>
      <point x="349" y="1436" type="qcurve"/>
      <point x="433" y="1493" type="line"/>
      <point x="452" y="1431"/>
      <point x="576" y="1328"/>
      <point x="672" y="1328" type="qcurve" smooth="yes"/>
      <point x="774" y="1328"/>
      <point x="942" y="1439"/>
    </contour>
    <contour>
      <point x="653" y="1171" type="move" name="top"/>
    </contour>
  </outline>
</glyph>
<glyph name="tilde" format="1">
  <advance width="1024"/>
  <unicode hex="02DC"/>
  <outline>
    <contour>
      <point x="270" y="1259" type="line"/>
      <point x="318" y="1322"/>
      <point x="480" y="1427"/>
      <point x="551" y="1427" type="qcurve" smooth="yes"/>
      <point x="594" y="1427"/>
      <point x="663" y="1399"/>
      <point x="697" y="1373" type="qcurve" smooth="yes"/>
      <point x="721" y="1356"/>
      <point x="801" y="1304"/>
      <point x="844" y="1304" type="qcurve" smooth="yes"/>
      <point x="886" y="1304"/>
      <point x="976" y="1357"/>
      <point x="1008" y="1394" type="qcurve"/>
      <point x="1076" y="1315" type="line"/>
      <point x="1021" y="1239"/>
      <point x="875" y="1157"/>
      <point x="817" y="1157" type="qcurve" smooth="yes"/>
      <point x="767" y="1157"/>
      <point x="677" y="1202"/>
      <point x="652" y="1222" type="qcurve" smooth="yes"/>
      <point x="623" y="1245"/>
      <point x="553" y="1280"/>
      <point x="523" y="1280" type="qcurve" smooth="yes"/>
      <point x="473" y="1280"/>
      <point x="368" y="1208"/>
      <point x="343" y="1180" type="qcurve"/>
    </contour>
    <contour>
      <point x="691" y="1213" type="move" name="top"/>
    </contour>
  </outline>
</glyph>
<glyph name="ydotbelow" format="1">
  <advance width="1071.1446820903839"/>
  <unicode hex="1EF5"/>
  <outline>
    <component base="y"/>
    <component base="dotbelow" xOffset="286"/>
    <contour>
      <point x="415" y="-99" type="move" name="bottom"/>
    </contour>
  </outline>
</glyph>
<glyph name="peso" format="2">
  <advance width="1349"/>
  <unicode hex="20B1"/>
  <outline>
    <contour>
      <point x="1293" y="764" type="line"/>
      <point x="1012" y="764" type="line"/>
      <point x="1012" y="778" type="line"/>
      <point x="679" y="778" type="line"/>
      <point x="706" y="890" type="line"/>
      <point x="1042" y="890" type="line"/>
      <point x="1042" y="905" type="line"/>
      <point x="1323" y="905" type="line"/>
    </contour>
    <contour>
      <point x="44" y="765" type="line"/>
      <point x="65" y="904" type="line"/>
      <point x="373" y="904" type="line"/>
      <point x="371" y="890" type="line"/>
      <point x="706" y="890" type="line"/>
      <point x="679" y="779" type="line"/>
      <point x="355" y="779" type="line"/>
      <point x="353" y="765" type="line"/>
    </contour>
    <contour>
      <point x="1324" y="1069" type="line"/>
      <point x="1102" y="1069" type="line"/>
      <point x="1102" y="1083" type="line"/>
      <point x="607" y="1083" type="line"/>
      <point x="629" y="1195" type="line"/>
      <point x="1082" y="1195" type="line"/>
      <point x="1082" y="1211" type="line"/>
      <point x="1354" y="1211" type="line"/>
    </contour>
    <contour>
      <point x="44" y="1069" type="line"/>
      <point x="65" y="1211" type="line"/>
      <point x="419" y="1211" type="line"/>
      <point x="417" y="1195" type="line"/>
      <point x="629" y="1195" type="line"/>
      <point x="607" y="1084" type="line"/>
      <point x="400" y="1084" type="line"/>
      <point x="398" y="1069" type="line"/>
    </contour>
    <contour>
      <point x="-61" y="0" type="line"/>
      <point x="-52" y="100" type="line"/>
      <point x="145" y="127" type="line"/>
      <point x="267" y="754" type="line"/>
      <point x="372" y="1362" type="line"/>
      <point x="189" y="1386" type="line"/>
      <point x="202" y="1500" type="line"/>
      <point x="774" y="1500" type="line" smooth="yes"/>
      <point x="991" y="1500"/>
      <point x="1218" y="1215"/>
      <point x="1176" y="1003" type="qcurve" smooth="yes"/>
      <point x="1136" y="802"/>
      <point x="818" y="499"/>
      <point x="619" y="499" type="qcurve" smooth="yes"/>
      <point x="520" y="499"/>
      <point x="372" y="520"/>
      <point x="330" y="528" type="qcurve"/>
      <point x="359" y="629" type="line"/>
      <point x="410" y="616"/>
      <point x="512" y="607"/>
      <point x="605" y="607" type="qcurve" smooth="yes"/>
      <point x="743" y="607"/>
      <point x="980" y="839"/>
      <point x="1013" y="1022" type="qcurve" smooth="yes"/>
      <point x="1041" y="1177"/>
      <point x="889" y="1382"/>
      <point x="744" y="1382" type="qcurve" smooth="yes"/>
      <point x="559" y="1382" type="line"/>
      <point x="533" y="1360" type="line"/>
      <point x="429" y="764" type="line"/>
      <point x="308" y="122" type="line"/>
      <point x="508" y="100" type="line"/>
      <point x="499" y="0" type="line"/>
    </contour>
  </outline>
</glyph>
<glyph name="fi" format="2">
  <advance width="1188"/>
  <unicode hex="FB01"/>
  <outline>
    <contour>
      <point x="-340" y="-298" type="qcurve" smooth="yes"/>
      <point x="-340" y="-238"/>
      <point x="-262" y="-152"/>
      <point x="-217" y="-141" type="qcurve"/>
      <point x="-163" y="-185" type="line"/>
      <point x="-163" y="-235" type="line"/>
      <point x="-187" y="-235"/>
      <point x="-214" y="-258"/>
      <point x="-214" y="-280" type="qcurve" smooth="yes"/>
      <point x="-214" y="-302"/>
      <point x="-175" y="-335"/>
      <point x="-129" y="-335" type="qcurve" smooth="yes"/>
      <point x="-25" y="-335"/>
      <point x="105" y="-164"/>
      <point x="139" y="39" type="qcurve" smooth="yes"/>
      <point x="283" y="905" type="line"/>
      <point x="287" y="942" type="line"/>
      <point x="336" y="1223" type="line" smooth="yes"/>
      <point x="370" y="1418"/>
      <point x="593" y="1582"/>
      <point x="742" y="1582" type="qcurve" smooth="yes"/>
      <point x="867" y="1582"/>
      <point x="1028" y="1423"/>
      <point x="1028" y="1341" type="qcurve" smooth="yes"/>
      <point x="1028" y="1287"/>
      <point x="995" y="1214"/>
      <point x="973" y="1194" type="qcurve" smooth="yes"/>
      <point x="966" y="1188"/>
      <point x="867" y="1241"/>
      <point x="872" y="1249" type="qcurve" smooth="yes"/>
      <point x="884" y="1268"/>
      <point x="894" y="1309"/>
      <point x="894" y="1329" type="qcurve" smooth="yes"/>
      <point x="894" y="1376"/>
      <point x="793" y="1460"/>
      <point x="723" y="1460" type="qcurve" smooth="yes"/>
      <point x="622" y="1460"/>
      <point x="501" y="1346"/>
      <point x="491" y="1261" type="qcurve" smooth="yes"/>
      <point x="444" y="936" type="line"/>
      <point x="448" y="913" type="line"/>
      <point x="292" y="82" type="line" smooth="yes"/>
      <point x="248" y="-151"/>
      <point x="46" y="-464"/>
      <point x="-143" y="-464" type="qcurve" smooth="yes"/>
      <point x="-240" y="-464"/>
      <point x="-340" y="-365"/>
    </contour>
    <contour>
      <point x="134" y="864" type="line"/>
      <point x="128" y="938" type="line"/>
      <point x="317" y="980" type="line"/>
      <point x="747" y="986" type="line"/>
      <point x="981" y="1014" type="line"/>
      <point x="1051" y="1014" type="line"/>
      <point x="1115" y="910" type="line"/>
      <point x="1054" y="796" type="line"/>
      <point x="925" y="140" type="line"/>
      <point x="1146" y="164" type="line"/>
      <point x="1146" y="76" type="line"/>
      <point x="783" y="-21" type="line"/>
      <point x="742" y="68" type="line"/>
      <point x="836" y="527" type="line"/>
      <point x="905" y="848" type="line"/>
      <point x="863" y="865" type="line"/>
      <point x="394" y="865" type="line"/>
      <point x="337" y="847" type="line"/>
    </contour>
  </outline>
</glyph>
<glyph name="fl" format="2">
  <advance width="1157"/>
  <unicode hex="FB02"/>
  <outline>
    <contour>
      <point x="-340" y="-298" type="qcurve" smooth="yes"/>
      <point x="-340" y="-238"/>
      <point x="-262" y="-152"/>
      <point x="-217" y="-141" type="qcurve"/>
      <point x="-163" y="-185" type="line"/>
      <point x="-163" y="-235" type="line"/>
      <point x="-187" y="-235"/>
      <point x="-214" y="-258"/>
      <point x="-214" y="-280" type="qcurve" smooth="yes"/>
      <point x="-214" y="-302"/>
      <point x="-175" y="-335"/>
      <point x="-129" y="-335" type="qcurve" smooth="yes"/>
      <point x="-25" y="-335"/>
      <point x="105" y="-164"/>
      <point x="139" y="39" type="qcurve" smooth="yes"/>
      <point x="283" y="905" type="line"/>
      <point x="287" y="942" type="line"/>
      <point x="326" y="1164" type="line" smooth="yes"/>
      <point x="364" y="1382"/>
      <point x="613" y="1582"/>
      <point x="782" y="1582" type="qcurve" smooth="yes"/>
      <point x="907" y="1582"/>
      <point x="1068" y="1423"/>
      <point x="1068" y="1341" type="qcurve" smooth="yes"/>
      <point x="1068" y="1287"/>
      <point x="1046" y="1220"/>
      <point x="1021" y="1194" type="qcurve"/>
      <point x="960" y="1201"/>
      <point x="917" y="1245"/>
      <point x="920" y="1249" type="qcurve" smooth="yes"/>
      <point x="931" y="1267"/>
      <point x="934" y="1309"/>
      <point x="934" y="1329" type="qcurve" smooth="yes"/>
      <point x="934" y="1376"/>
      <point x="833" y="1460"/>
      <point x="763" y="1460" type="qcurve" smooth="yes"/>
      <point x="642" y="1460"/>
      <point x="496" y="1309"/>
      <point x="481" y="1202" type="qcurve" smooth="yes"/>
      <point x="444" y="936" type="line"/>
      <point x="448" y="913" type="line"/>
      <point x="292" y="82" type="line" smooth="yes"/>
      <point x="248" y="-151"/>
      <point x="46" y="-464"/>
      <point x="-143" y="-464" type="qcurve" smooth="yes"/>
      <point x="-240" y="-464"/>
      <point x="-340" y="-365"/>
    </contour>
    <contour>
      <point x="134" y="864" type="line"/>
      <point x="128" y="938" type="line"/>
      <point x="317" y="980" type="line"/>
      <point x="649" y="980" type="line"/>
      <point x="649" y="878" type="line"/>
      <point x="394" y="865" type="line"/>
      <point x="337" y="847" type="line"/>
    </contour>
    <contour>
      <point x="731" y="-14" type="line"/>
      <point x="684" y="86" type="line"/>
      <point x="784" y="527" type="line"/>
      <point x="928" y="1336" type="line"/>
      <point x="844" y="1448" type="line"/>
      <point x="872" y="1520" type="line"/>
      <point x="1033" y="1534" type="line"/>
      <point x="1120" y="1464" type="line"/>
      <point x="951" y="588" type="line"/>
      <point x="868" y="134" type="line"/>
      <point x="1064" y="154" type="line"/>
      <point x="1064" y="66" type="line"/>
    </contour>
  </outline>
</glyph>
<glyph name="f_f_l" format="2">
  <advance width="1736"/>
  <unicode hex="FB04"/>
  <outline>
    <contour>
      <point x="-340" y="-298" type="qcurve" smooth="yes"/>
      <point x="-340" y="-238"/>
      <point x="-262" y="-152"/>
      <point x="-217" y="-141" type="qcurve"/>
      <point x="-163" y="-185" type="line"/>
      <point x="-163" y="-235" type="line"/>
      <point x="-187" y="-235"/>
      <point x="-214" y="-258"/>
      <point x="-214" y="-280" type="qcurve" smooth="yes"/>
      <point x="-214" y="-302"/>
      <point x="-175" y="-335"/>
      <point x="-129" y="-335" type="qcurve" smooth="yes"/>
      <point x="-25" y="-335"/>
      <point x="105" y="-164"/>
      <point x="139" y="39" type="qcurve" smooth="yes"/>
      <point x="283" y="905" type="line"/>
      <point x="287" y="942" type="line"/>
      <point x="325" y="1095" type="line" smooth="yes"/>
      <point x="378" y="1310"/>
      <point x="612" y="1513"/>
      <point x="781" y="1513" type="qcurve" smooth="yes"/>
      <point x="906" y="1513"/>
      <point x="1073" y="1354"/>
      <point x="1067" y="1272" type="qcurve" smooth="yes"/>
      <point x="1064" y="1232"/>
      <point x="1036" y="1148"/>
      <point x="1020" y="1125" type="qcurve" smooth="yes"/>
      <point x="1015" y="1118"/>
      <point x="925" y="1173"/>
      <point x="926" y="1177" type="qcurve" smooth="yes"/>
      <point x="931" y="1198"/>
      <point x="935" y="1240"/>
      <point x="935" y="1260" type="qcurve" smooth="yes"/>
      <point x="935" y="1307"/>
      <point x="832" y="1391"/>
      <point x="762" y="1391" type="qcurve" smooth="yes"/>
      <point x="641" y="1391"/>
      <point x="500" y="1240"/>
      <point x="480" y="1133" type="qcurve" smooth="yes"/>
      <point x="444" y="936" type="line"/>
      <point x="448" y="913" type="line"/>
      <point x="292" y="82" type="line" smooth="yes"/>
      <point x="248" y="-151"/>
      <point x="46" y="-464"/>
      <point x="-143" y="-464" type="qcurve" smooth="yes"/>
      <point x="-240" y="-464"/>
      <point x="-340" y="-365"/>
    </contour>
    <contour>
      <point x="145" y="864" type="line"/>
      <point x="139" y="938" type="line"/>
      <point x="328" y="980" type="line"/>
      <point x="1249" y="960" type="line"/>
      <point x="1249" y="858" type="line"/>
      <point x="978" y="858" type="line"/>
      <point x="403" y="854" type="line"/>
      <point x="348" y="847" type="line"/>
    </contour>
    <contour>
      <point x="248" y="-166" type="qcurve" smooth="yes"/>
      <point x="248" y="-106"/>
      <point x="326" y="-20"/>
      <point x="371" y="-9" type="qcurve"/>
      <point x="425" y="-53" type="line"/>
      <point x="425" y="-103" type="line"/>
      <point x="401" y="-103"/>
      <point x="374" y="-126"/>
      <point x="374" y="-148" type="qcurve" smooth="yes"/>
      <point x="374" y="-170"/>
      <point x="413" y="-203"/>
      <point x="459" y="-203" type="qcurve" smooth="yes"/>
      <point x="552" y="-203"/>
      <point x="698" y="16"/>
      <point x="732" y="200" type="qcurve" smooth="yes"/>
      <point x="863" y="905" type="line"/>
      <point x="875" y="942" type="line"/>
      <point x="941" y="1256" type="line" smooth="yes"/>
      <point x="978" y="1432"/>
      <point x="1140" y="1553"/>
      <point x="1240" y="1553" type="qcurve" smooth="yes"/>
      <point x="1273" y="1553"/>
      <point x="1355" y="1540"/>
      <point x="1379" y="1530" type="qcurve" smooth="yes"/>
      <point x="1401" y="1521"/>
      <point x="1403" y="1511"/>
      <point x="1400" y="1503" type="qcurve" smooth="yes"/>
      <point x="1392" y="1478"/>
      <point x="1373" y="1430"/>
      <point x="1367" y="1411" type="qcurve" smooth="yes"/>
      <point x="1363" y="1399"/>
      <point x="1356" y="1403"/>
      <point x="1345" y="1405" type="qcurve" smooth="yes"/>
      <point x="1329" y="1408"/>
      <point x="1287" y="1412"/>
      <point x="1274" y="1412" type="qcurve" smooth="yes"/>
      <point x="1198" y="1412"/>
      <point x="1108" y="1347"/>
      <point x="1090" y="1248" type="qcurve" smooth="yes"/>
      <point x="1034" y="936" type="line"/>
      <point x="1028" y="913" type="line"/>
      <point x="880" y="214" type="line" smooth="yes"/>
      <point x="826" y="-42"/>
      <point x="616" y="-332"/>
      <point x="445" y="-332" type="qcurve" smooth="yes"/>
      <point x="348" y="-332"/>
      <point x="248" y="-233"/>
    </contour>
    <contour>
      <point x="1300" y="-14" type="line"/>
      <point x="1253" y="86" type="line"/>
      <point x="1353" y="527" type="line"/>
      <point x="1497" y="1336" type="line"/>
      <point x="1356" y="1402" type="line"/>
      <point x="1377" y="1531" type="line"/>
      <point x="1602" y="1534" type="line"/>
      <point x="1689" y="1464" type="line"/>
      <point x="1520" y="588" type="line"/>
      <point x="1437" y="134" type="line"/>
      <point x="1633" y="154" type="line"/>
      <point x="1633" y="66" type="line"/>
    </contour>
  </outline>
</glyph>
<glyph name="acute.uc" format="1">
  <advance width="1024"/>
  <outline>
    <contour>
      <point x="1127" y="1920" type="qcurve" smooth="yes"/>
      <point x="1127" y="1880"/>
      <point x="1058" y="1813"/>
      <point x="1003" y="1784" type="qcurve" smooth="yes"/>
      <point x="679" y="1612" type="line"/>
      <point x="609" y="1711" type="line"/>
      <point x="880" y="1928" type="line" smooth="yes"/>
      <point x="924" y="1964"/>
      <point x="992" y="2022"/>
      <point x="1032" y="2022" type="qcurve" smooth="yes"/>
      <point x="1072" y="2022"/>
      <point x="1127" y="1960"/>
    </contour>
    <contour>
      <point x="540" y="1591" type="move" name="top"/>
    </contour>
  </outline>
</glyph>
<glyph name="breve_acute" format="1">
  <advance width="1024"/>
  <outline>
    <contour>
      <point x="976" y="1461" type="qcurve"/>
      <point x="1053" y="1408" type="line"/>
      <point x="1011" y="1310"/>
      <point x="781" y="1157"/>
      <point x="651" y="1157" type="qcurve" smooth="yes"/>
      <point x="521" y="1157"/>
      <point x="347" y="1295"/>
      <point x="344" y="1405" type="qcurve"/>
      <point x="428" y="1462" type="line"/>
      <point x="447" y="1400"/>
      <point x="571" y="1313"/>
      <point x="667" y="1313" type="qcurve" smooth="yes"/>
      <point x="769" y="1313"/>
      <point x="937" y="1408"/>
    </contour>
    <contour>
      <point x="1001" y="1684" type="qcurve" smooth="yes"/>
      <point x="1001" y="1648"/>
      <point x="939" y="1594"/>
      <point x="875" y="1573" type="qcurve" smooth="yes"/>
      <point x="548" y="1463" type="line"/>
      <point x="500" y="1546" type="line"/>
      <point x="748" y="1690" type="line" smooth="yes"/>
      <point x="789" y="1714"/>
      <point x="878" y="1766"/>
      <point x="910" y="1766" type="qcurve" smooth="yes"/>
      <point x="958" y="1766"/>
      <point x="1001" y="1717"/>
    </contour>
    <contour>
      <point x="650" y="1121" type="move" name="bottom"/>
    </contour>
  </outline>
</glyph>
<glyph name="brevebelow.uc" format="1">
  <advance width="1024"/>
  <outline>
    <component base="brevebelow" xOffset="-106" yOffset="-417"/>
    <contour>
      <point x="410" y="-81" type="move" name="below"/>
    </contour>
  </outline>
</glyph>
<glyph name="breveinverted" format="1">
  <advance width="1024"/>
  <outline>
    <contour>
      <point x="377" y="1183" type="qcurve"/>
      <point x="305" y="1243" type="line"/>
      <point x="356" y="1337"/>
      <point x="601" y="1483"/>
      <point x="731" y="1471" type="qcurve" smooth="yes"/>
      <point x="860" y="1458"/>
      <point x="1019" y="1289"/>
      <point x="1011" y="1179" type="qcurve"/>
      <point x="922" y="1130" type="line"/>
      <point x="909" y="1194"/>
      <point x="796" y="1308"/>
      <point x="700" y="1317" type="qcurve" smooth="yes"/>
      <point x="598" y="1327"/>
      <point x="421" y="1232"/>
    </contour>
    <contour>
      <point x="688" y="1183" type="move" name="top"/>
    </contour>
  </outline>
</glyph>
<glyph name="caron.uc" format="2">
  <advance width="1024"/>
  <anchor x="738" y="1616" name="top"/>
  <outline>
    <contour>
      <point x="742" y="1616" type="qcurve" smooth="yes"/>
      <point x="708" y="1616"/>
      <point x="670" y="1647"/>
      <point x="648" y="1689" type="qcurve" smooth="yes"/>
      <point x="496" y="1932" type="line"/>
      <point x="577" y="2005" type="line"/>
      <point x="767" y="1790" type="line"/>
      <point x="1047" y="2005" type="line"/>
      <point x="1122" y="1932" type="line"/>
      <point x="868" y="1689" type="line" smooth="yes"/>
      <point x="816" y="1640"/>
      <point x="776" y="1616"/>
    </contour>
  </outline>
</glyph>
<glyph name="circumflex_acute" format="1">
  <advance width="1024"/>
  <outline>
    <contour>
      <point x="725" y="1475" type="qcurve" smooth="yes"/>
      <point x="759" y="1475"/>
      <point x="791" y="1440"/>
      <point x="820" y="1402" type="qcurve" smooth="yes"/>
      <point x="972" y="1199" type="line"/>
      <point x="884" y="1126" type="line"/>
      <point x="701" y="1298" type="line"/>
      <point x="414" y="1126" type="line"/>
      <point x="346" y="1199" type="line"/>
      <point x="600" y="1402" type="line" smooth="yes"/>
      <point x="655" y="1446"/>
      <point x="691" y="1475"/>
    </contour>
    <contour>
      <point x="909" y="1720" type="qcurve" smooth="yes"/>
      <point x="909" y="1684"/>
      <point x="843" y="1638"/>
      <point x="785" y="1605" type="qcurve" smooth="yes"/>
      <point x="543" y="1468" type="line"/>
      <point x="480" y="1546" type="line"/>
      <point x="658" y="1710" type="line" smooth="yes"/>
      <point x="693" y="1742"/>
      <point x="786" y="1809"/>
      <point x="818" y="1809" type="qcurve" smooth="yes"/>
      <point x="866" y="1809"/>
      <point x="909" y="1753"/>
    </contour>
    <contour>
      <point x="652" y="1085" type="move" name="top"/>
    </contour>
  </outline>
</glyph>
<glyph name="circumflex_tilde.uc" format="2">
  <advance width="1024"/>
  <anchor x="746" y="1551" name="top"/>
  <outline>
    <contour>
      <point x="811" y="1974" type="qcurve" smooth="yes"/>
      <point x="837" y="1954"/>
      <point x="927" y="1909"/>
      <point x="977" y="1909" type="qcurve" smooth="yes"/>
      <point x="1035" y="1909"/>
      <point x="1180" y="1991"/>
      <point x="1217" y="2044" type="qcurve"/>
      <point x="1168" y="2123" type="line"/>
      <point x="1154" y="2109"/>
      <point x="1064" y="2056"/>
      <point x="1022" y="2056" type="qcurve" smooth="yes"/>
      <point x="979" y="2056"/>
      <point x="899" y="2108"/>
      <point x="874" y="2125" type="qcurve" smooth="yes"/>
      <point x="840" y="2151"/>
      <point x="770" y="2179"/>
      <point x="727" y="2179" type="qcurve" smooth="yes"/>
      <point x="656" y="2179"/>
      <point x="496" y="2074"/>
      <point x="462" y="2031" type="qcurve"/>
      <point x="516" y="1952" type="line"/>
      <point x="528" y="1960"/>
      <point x="632" y="2032"/>
      <point x="682" y="2032" type="qcurve" smooth="yes"/>
      <point x="712" y="2032"/>
      <point x="782" y="1997"/>
    </contour>
    <contour>
      <point x="429" y="1614" type="line"/>
      <point x="496" y="1550" type="line"/>
      <point x="771" y="1738" type="line"/>
      <point x="957" y="1550" type="line"/>
      <point x="1044" y="1614" type="line"/>
      <point x="895" y="1827" type="line" smooth="yes"/>
      <point x="872" y="1860"/>
      <point x="831" y="1894"/>
      <point x="802" y="1894" type="qcurve"/>
      <point x="765" y="1894"/>
      <point x="704" y="1852"/>
      <point x="666" y="1819" type="qcurve" smooth="yes"/>
    </contour>
  </outline>
</glyph>
<glyph name="commaturnedabove.uc" format="2">
  <advance width="1024"/>
  <anchor x="740" y="1578" name="top"/>
  <outline>
    <contour>
      <point x="925" y="2049" type="line"/>
      <point x="882" y="2018"/>
      <point x="768" y="1900"/>
      <point x="748" y="1842" type="qcurve"/>
      <point x="816" y="1842"/>
      <point x="892" y="1770"/>
      <point x="892" y="1714" type="qcurve" smooth="yes"/>
      <point x="892" y="1659"/>
      <point x="807" y="1578"/>
      <point x="747" y="1578" type="qcurve" smooth="yes"/>
      <point x="691" y="1578"/>
      <point x="605" y="1677"/>
      <point x="605" y="1757" type="qcurve" smooth="yes"/>
      <point x="605" y="1856"/>
      <point x="776" y="2052"/>
      <point x="874" y="2111" type="qcurve"/>
    </contour>
  </outline>
</glyph>
<glyph name="dblgrave.uc" format="2">
  <advance width="1024"/>
  <anchor x="891" y="1595" name="top"/>
  <outline>
    <contour>
      <point x="371" y="1908" type="qcurve" smooth="yes"/>
      <point x="371" y="1944"/>
      <point x="425" y="1994"/>
      <point x="461" y="1994" type="qcurve" smooth="yes"/>
      <point x="497" y="1994"/>
      <point x="558" y="1935"/>
      <point x="590" y="1895" type="qcurve" smooth="yes"/>
      <point x="772" y="1670" type="line"/>
      <point x="695" y="1592" type="line"/>
      <point x="460" y="1788" type="line" smooth="yes"/>
      <point x="421" y="1820"/>
      <point x="371" y="1872"/>
    </contour>
    <contour>
      <point x="761" y="1908" type="qcurve" smooth="yes"/>
      <point x="761" y="1944"/>
      <point x="815" y="1994"/>
      <point x="851" y="1994" type="qcurve" smooth="yes"/>
      <point x="887" y="1994"/>
      <point x="948" y="1935"/>
      <point x="980" y="1895" type="qcurve" smooth="yes"/>
      <point x="1162" y="1670" type="line"/>
      <point x="1085" y="1592" type="line"/>
      <point x="850" y="1788" type="line" smooth="yes"/>
      <point x="811" y="1820"/>
      <point x="761" y="1872"/>
    </contour>
  </outline>
</glyph>
<glyph name="dieresis_macron" format="1">
  <advance width="1024"/>
  <outline>
    <contour>
      <point x="425" y="1501" type="line"/>
      <point x="455" y="1648" type="line"/>
      <point x="1046" y="1648" type="line"/>
      <point x="1017" y="1501" type="line"/>
    </contour>
    <contour>
      <point x="796" y="1271" type="qcurve" smooth="yes"/>
      <point x="796" y="1326"/>
      <point x="856" y="1385"/>
      <point x="912" y="1385" type="qcurve" smooth="yes"/>
      <point x="965" y="1385"/>
      <point x="1028" y="1322"/>
      <point x="1028" y="1271" type="qcurve" smooth="yes"/>
      <point x="1028" y="1217"/>
      <point x="969" y="1158"/>
      <point x="912" y="1158" type="qcurve" smooth="yes"/>
      <point x="859" y="1158"/>
      <point x="796" y="1220"/>
    </contour>
    <contour>
      <point x="336" y="1271" type="qcurve" smooth="yes"/>
      <point x="336" y="1326"/>
      <point x="396" y="1385"/>
      <point x="452" y="1385" type="qcurve" smooth="yes"/>
      <point x="505" y="1385"/>
      <point x="568" y="1322"/>
      <point x="568" y="1271" type="qcurve" smooth="yes"/>
      <point x="568" y="1217"/>
      <point x="509" y="1158"/>
      <point x="452" y="1158" type="qcurve" smooth="yes"/>
      <point x="399" y="1158"/>
      <point x="336" y="1220"/>
    </contour>
    <contour>
      <point x="691" y="1156" type="move" name="top"/>
    </contour>
    <contour>
      <point x="691" y="1183" type="move" name="top"/>
    </contour>
  </outline>
</glyph>
<glyph name="dieresisbelow" format="1">
  <advance width="1024"/>
  <outline>
    <contour>
      <point x="22" y="-291" type="qcurve" smooth="yes"/>
      <point x="22" y="-236"/>
      <point x="82" y="-177"/>
      <point x="138" y="-177" type="qcurve" smooth="yes"/>
      <point x="191" y="-177"/>
      <point x="254" y="-240"/>
      <point x="254" y="-291" type="qcurve" smooth="yes"/>
      <point x="254" y="-345"/>
      <point x="195" y="-404"/>
      <point x="138" y="-404" type="qcurve" smooth="yes"/>
      <point x="85" y="-404"/>
      <point x="22" y="-342"/>
    </contour>
    <contour>
      <point x="482" y="-291" type="qcurve" smooth="yes"/>
      <point x="482" y="-236"/>
      <point x="542" y="-177"/>
      <point x="598" y="-177" type="qcurve" smooth="yes"/>
      <point x="651" y="-177"/>
      <point x="714" y="-240"/>
      <point x="714" y="-291" type="qcurve" smooth="yes"/>
      <point x="714" y="-345"/>
      <point x="655" y="-404"/>
      <point x="598" y="-404" type="qcurve" smooth="yes"/>
      <point x="545" y="-404"/>
      <point x="482" y="-342"/>
    </contour>
    <contour>
      <point x="363" y="-212" type="move" name="bottom"/>
    </contour>
  </outline>
</glyph>
<glyph name="dotbelow" format="1">
  <advance width="1024"/>
  <outline>
    <contour>
      <point x="282" y="-207" type="qcurve" smooth="yes"/>
      <point x="282" y="-160"/>
      <point x="350" y="-99"/>
      <point x="403" y="-99" type="qcurve" smooth="yes"/>
      <point x="456" y="-99"/>
      <point x="524" y="-166"/>
      <point x="524" y="-217" type="qcurve" smooth="yes"/>
      <point x="524" y="-264"/>
      <point x="456" y="-325"/>
      <point x="403" y="-325" type="qcurve" smooth="yes"/>
      <point x="350" y="-325"/>
      <point x="282" y="-258"/>
    </contour>
    <contour>
      <point x="415" y="-99" type="move" name="bottom"/>
    </contour>
  </outline>
</glyph>
<glyph name="engn" format="2">
  <advance width="1173"/>
  <outline>
    <contour>
      <point x="158" y="-23" type="line"/>
      <point x="116" y="56" type="line"/>
      <point x="219" y="527" type="line"/>
      <point x="271" y="822" type="line"/>
      <point x="129" y="818" type="line"/>
      <point x="131" y="915" type="line"/>
      <point x="350" y="1001" type="line"/>
      <point x="396" y="1001" type="line"/>
      <point x="429" y="736" type="line"/>
      <point x="396" y="588" type="line"/>
      <point x="291" y="87" type="line"/>
      <point x="322" y="4" type="line"/>
    </contour>
    <contour>
      <point x="348" y="720" type="line"/>
      <point x="413" y="819"/>
      <point x="714" y="1021"/>
      <point x="832" y="1021" type="qcurve" smooth="yes"/>
      <point x="941" y="1021"/>
      <point x="1074" y="878"/>
      <point x="1046" y="742" type="qcurve" smooth="yes"/>
      <point x="894" y="0" type="line"/>
      <point x="734" y="0" type="line"/>
      <point x="876" y="702" type="line" smooth="yes"/>
      <point x="893" y="785"/>
      <point x="849" y="877"/>
      <point x="772" y="877" type="qcurve" smooth="yes"/>
      <point x="674" y="877"/>
      <point x="426" y="700"/>
      <point x="369" y="630" type="qcurve"/>
    </contour>
  </outline>
</glyph>
<glyph name="grave.uc" format="1">
  <advance width="1024"/>
  <outline>
    <contour>
      <point x="546" y="1907" type="qcurve" smooth="yes"/>
      <point x="546" y="1943"/>
      <point x="608" y="2007"/>
      <point x="648" y="2007" type="qcurve" smooth="yes"/>
      <point x="686" y="2007"/>
      <point x="752" y="1953"/>
      <point x="778" y="1919" type="qcurve" smooth="yes"/>
      <point x="966" y="1673" type="line"/>
      <point x="883" y="1592" type="line"/>
      <point x="625" y="1796" type="line" smooth="yes"/>
      <point x="593" y="1822"/>
      <point x="546" y="1873"/>
    </contour>
    <contour>
      <point x="931" y="1592" type="move" name="top"/>
    </contour>
  </outline>
</glyph>
<glyph name="hookabove" format="2">
  <advance width="1024"/>
  <anchor x="569" y="957" name="top"/>
  <outline>
    <contour>
      <point x="585" y="1153" type="line"/>
      <point x="551" y="1003" type="line"/>
      <point x="691" y="1003" type="line"/>
      <point x="718" y="1102" type="line"/>
      <point x="733" y="1098"/>
      <point x="790" y="1089"/>
      <point x="828" y="1089" type="qcurve" smooth="yes"/>
      <point x="916" y="1089"/>
      <point x="1032" y="1225"/>
      <point x="1032" y="1317" type="qcurve" smooth="yes"/>
      <point x="1032" y="1395"/>
      <point x="912" y="1496"/>
      <point x="790" y="1496" type="qcurve" smooth="yes"/>
      <point x="728" y="1496"/>
      <point x="580" y="1467"/>
      <point x="533" y="1448" type="qcurve"/>
      <point x="564" y="1333" type="line"/>
      <point x="611" y="1353"/>
      <point x="696" y="1372"/>
      <point x="753" y="1372" type="qcurve" smooth="yes"/>
      <point x="810" y="1372"/>
      <point x="870" y="1333"/>
      <point x="870" y="1297" type="qcurve" smooth="yes"/>
      <point x="870" y="1259"/>
      <point x="808" y="1206"/>
      <point x="756" y="1206" type="qcurve" smooth="yes"/>
      <point x="735" y="1206"/>
      <point x="676" y="1213"/>
      <point x="656" y="1222" type="qcurve"/>
    </contour>
  </outline>
</glyph>
<glyph name="hornU" format="2">
  <advance width="1471"/>
  <anchor x="880" y="1500" name="top"/>
  <anchor x="780" y="0" name="ogonek"/>
  <anchor x="590" y="0" name="bottom"/>
  <anchor x="1371" y="1500" name="horn"/>
  <outline>
    <contour>
      <point x="161" y="1386" type="line"/>
      <point x="175" y="1500" type="line"/>
      <point x="716" y="1500" type="line"/>
      <point x="702" y="1386" type="line"/>
      <point x="527" y="1362" type="line"/>
      <point x="409" y="794" type="line" smooth="yes"/>
      <point x="390" y="702"/>
      <point x="354" y="454"/>
      <point x="354" y="387" type="qcurve" smooth="yes"/>
      <point x="354" y="268"/>
      <point x="502" y="104"/>
      <point x="643" y="104" type="qcurve" smooth="yes"/>
      <point x="797" y="104"/>
      <point x="1007" y="277"/>
      <point x="1050" y="494" type="qcurve" smooth="yes"/>
      <point x="1109" y="794" type="line"/>
      <point x="1207" y="1362" type="line"/>
      <point x="1015" y="1386" type="line"/>
      <point x="1029" y="1500" type="line"/>
      <point x="1371" y="1500" type="line"/>
      <point x="1233" y="794" type="line"/>
      <point x="1178" y="493" type="line" smooth="yes"/>
      <point x="1126" y="209"/>
      <point x="838" y="-22"/>
      <point x="611" y="-22" type="qcurve" smooth="yes"/>
      <point x="375" y="-22"/>
      <point x="176" y="202"/>
      <point x="179" y="364" type="qcurve" smooth="yes"/>
      <point x="180" y="444"/>
      <point x="213" y="615"/>
      <point x="247" y="794" type="qcurve" smooth="yes"/>
      <point x="354" y="1362" type="line"/>
    </contour>
  </outline>
</glyph>
<glyph name="macron.uc" format="1">
  <advance width="1024"/>
  <outline>
    <contour>
      <point x="456" y="1664" type="line"/>
      <point x="485" y="1819" type="line"/>
      <point x="1077" y="1819" type="line"/>
      <point x="1048" y="1664" type="line"/>
    </contour>
    <contour>
      <point x="754" y="1674" type="move" name="top"/>
    </contour>
  </outline>
</glyph>
<glyph name="macronbelow" format="1">
  <advance width="1024"/>
  <outline>
    <contour>
      <point x="84" y="-319" type="line"/>
      <point x="105" y="-172" type="line"/>
      <point x="697" y="-172" type="line"/>
      <point x="676" y="-319" type="line"/>
    </contour>
    <contour>
      <point x="496" y="230" type="move" name="bottom"/>
    </contour>
  </outline>
</glyph>
<glyph name="ogonek.uc" format="2">
  <advance width="1024"/>
  <anchor x="484" y="-1" name="bottom"/>
  <outline>
    <contour>
      <point x="263" y="-244" type="qcurve" smooth="yes"/>
      <point x="253" y="-292"/>
      <point x="302" y="-347"/>
      <point x="353" y="-347" type="qcurve" smooth="yes"/>
      <point x="405" y="-347"/>
      <point x="542" y="-301"/>
      <point x="614" y="-254" type="qcurve"/>
      <point x="649" y="-357" type="line"/>
      <point x="583" y="-418"/>
      <point x="405" y="-497"/>
      <point x="305" y="-497" type="qcurve" smooth="yes"/>
      <point x="205" y="-497"/>
      <point x="88" y="-389"/>
      <point x="88" y="-306" type="qcurve" smooth="yes"/>
      <point x="88" y="-223"/>
      <point x="240" y="-45"/>
      <point x="323" y="8" type="qcurve" smooth="yes"/>
      <point x="390" y="51" type="line"/>
      <point x="484" y="0" type="line"/>
      <point x="432" y="-42" type="line" smooth="yes"/>
      <point x="355" y="-104"/>
      <point x="272" y="-199"/>
    </contour>
  </outline>
</glyph>
<glyph name="one.lf" format="2">
  <advance width="774"/>
  <outline>
    <contour>
      <point x="204" y="0" type="line"/>
      <point x="226" y="62"/>
      <point x="262" y="170"/>
      <point x="280" y="277" type="qcurve" smooth="yes"/>
      <point x="411" y="1054" type="line"/>
      <point x="442" y="1315" type="line"/>
      <point x="158" y="1170" type="line"/>
      <point x="119" y="1277" type="line"/>
      <point x="639" y="1555" type="line"/>
      <point x="702" y="1510" type="line"/>
      <point x="671" y="1465"/>
      <point x="623" y="1318"/>
      <point x="619" y="1295" type="qcurve" smooth="yes"/>
      <point x="520" y="720" type="line"/>
      <point x="436" y="133" type="line"/>
      <point x="275" y="-33" type="line"/>
    </contour>
  </outline>
</glyph>
<glyph name="ring_acute.uc" format="2">
  <advance width="1024"/>
  <anchor x="726.0" y="1534.0" name="top"/>
  <outline>
    <contour>
      <point x="528" y="1771" type="qcurve" smooth="yes"/>
      <point x="528" y="1862"/>
      <point x="650" y="1979"/>
      <point x="745" y="1979" type="qcurve" smooth="yes"/>
      <point x="840" y="1979"/>
      <point x="962" y="1862"/>
      <point x="962" y="1771" type="qcurve" smooth="yes"/>
      <point x="962" y="1680"/>
      <point x="840" y="1563"/>
      <point x="745" y="1563" type="qcurve" smooth="yes"/>
      <point x="650" y="1563"/>
      <point x="528" y="1680"/>
    </contour>
    <contour>
      <point x="642" y="1771" type="qcurve" smooth="yes"/>
      <point x="642" y="1721"/>
      <point x="695" y="1668"/>
      <point x="745" y="1668" type="qcurve" smooth="yes"/>
      <point x="795" y="1668"/>
      <point x="848" y="1721"/>
      <point x="848" y="1771" type="qcurve" smooth="yes"/>
      <point x="848" y="1821"/>
      <point x="795" y="1874"/>
      <point x="745" y="1874" type="qcurve" smooth="yes"/>
      <point x="695" y="1874"/>
      <point x="642" y="1821"/>
    </contour>
    <contour>
      <point x="908" y="2053" type="qcurve"/>
      <point x="618" y="2015" type="line"/>
      <point x="597" y="2105" type="line"/>
      <point x="867" y="2197" type="line"/>
      <point x="938" y="2221"/>
      <point x="968" y="2233"/>
      <point x="998" y="2228" type="qcurve"/>
      <point x="1032" y="2223"/>
      <point x="1072" y="2175"/>
      <point x="1066" y="2141" type="qcurve"/>
      <point x="1060" y="2100"/>
      <point x="991" y="2063"/>
    </contour>
  </outline>
</glyph>
<glyph name="tilde.uc" format="1">
  <advance width="1024"/>
  <outline>
    <contour>
      <point x="374" y="1753" type="line"/>
      <point x="422" y="1816"/>
      <point x="584" y="1921"/>
      <point x="655" y="1921" type="qcurve" smooth="yes"/>
      <point x="698" y="1921"/>
      <point x="767" y="1898"/>
      <point x="801" y="1872" type="qcurve" smooth="yes"/>
      <point x="825" y="1855"/>
      <point x="905" y="1803"/>
      <point x="948" y="1803" type="qcurve" smooth="yes"/>
      <point x="990" y="1803"/>
      <point x="1075" y="1857"/>
      <point x="1107" y="1894" type="qcurve"/>
      <point x="1180" y="1809" type="line"/>
      <point x="1125" y="1733"/>
      <point x="979" y="1651"/>
      <point x="921" y="1651" type="qcurve" smooth="yes"/>
      <point x="871" y="1651"/>
      <point x="781" y="1691"/>
      <point x="756" y="1711" type="qcurve" smooth="yes"/>
      <point x="727" y="1734"/>
      <point x="657" y="1769"/>
      <point x="627" y="1769" type="qcurve" smooth="yes"/>
      <point x="577" y="1769"/>
      <point x="474" y="1700"/>
      <point x="449" y="1672" type="qcurve"/>
    </contour>
    <contour>
      <point x="774" y="1649" type="move" name="top"/>
    </contour>
  </outline>
</glyph>
<glyph name="tilde_macron" format="2">
  <advance width="1024"/>
  <anchor x="658" y="1169" name="top"/>
  <outline>
    <contour>
      <point x="653" y="1233" type="qcurve" smooth="yes"/>
      <point x="679" y="1213"/>
      <point x="769" y="1168"/>
      <point x="819" y="1168" type="qcurve" smooth="yes"/>
      <point x="877" y="1168"/>
      <point x="1022" y="1250"/>
      <point x="1059" y="1303" type="qcurve"/>
      <point x="1010" y="1382" type="line"/>
      <point x="996" y="1368"/>
      <point x="906" y="1315"/>
      <point x="864" y="1315" type="qcurve" smooth="yes"/>
      <point x="821" y="1315"/>
      <point x="741" y="1367"/>
      <point x="716" y="1384" type="qcurve" smooth="yes"/>
      <point x="682" y="1410"/>
      <point x="612" y="1438"/>
      <point x="569" y="1438" type="qcurve" smooth="yes"/>
      <point x="498" y="1438"/>
      <point x="338" y="1333"/>
      <point x="304" y="1290" type="qcurve"/>
      <point x="358" y="1211" type="line"/>
      <point x="370" y="1219"/>
      <point x="474" y="1291"/>
      <point x="524" y="1291" type="qcurve" smooth="yes"/>
      <point x="554" y="1291"/>
      <point x="624" y="1256"/>
    </contour>
    <contour>
      <point x="455" y="1648" type="line"/>
      <point x="425" y="1501" type="line"/>
      <point x="1017" y="1501" type="line"/>
      <point x="1046" y="1648" type="line"/>
    </contour>
  </outline>
</glyph>
<glyph name="tilde_macron.uc" format="1">
  <advance width="1024"/>
  <outline>
    <contour>
      <point x="512" y="1930" type="line"/>
      <point x="541" y="2068" type="line"/>
      <point x="1133" y="2068" type="line"/>
      <point x="1104" y="1930" type="line"/>
    </contour>
    <contour>
      <point x="375" y="1718" type="line"/>
      <point x="423" y="1781"/>
      <point x="585" y="1877"/>
      <point x="656" y="1877" type="qcurve" smooth="yes"/>
      <point x="699" y="1877"/>
      <point x="768" y="1857"/>
      <point x="802" y="1831" type="qcurve" smooth="yes"/>
      <point x="826" y="1814"/>
      <point x="906" y="1768"/>
      <point x="949" y="1768" type="qcurve" smooth="yes"/>
      <point x="991" y="1768"/>
      <point x="1076" y="1822"/>
      <point x="1108" y="1859" type="qcurve"/>
      <point x="1177" y="1779" type="line"/>
      <point x="1122" y="1703"/>
      <point x="976" y="1621"/>
      <point x="918" y="1621" type="qcurve" smooth="yes"/>
      <point x="868" y="1621"/>
      <point x="778" y="1655"/>
      <point x="753" y="1675" type="qcurve" smooth="yes"/>
      <point x="724" y="1698"/>
      <point x="654" y="1730"/>
      <point x="624" y="1730" type="qcurve" smooth="yes"/>
      <point x="574" y="1730"/>
      <point x="471" y="1670"/>
      <point x="446" y="1642" type="qcurve"/>
    </contour>
    <contour>
      <point x="736" y="1595" type="move" name="top"/>
    </contour>
    <contour>
      <point x="774" y="1649" type="move" name="top"/>
    </contour>
  </outline>
</glyph>
<glyph name="zero.lf" format="2">
  <advance width="1176"/>
  <outline>
    <contour>
      <point x="76" y="746" type="qcurve" smooth="yes"/>
      <point x="136" y="1091"/>
      <point x="503" y="1520"/>
      <point x="727" y="1520" type="qcurve" smooth="yes"/>
      <point x="956" y="1520"/>
      <point x="1165" y="1097"/>
      <point x="1105" y="754" type="qcurve" smooth="yes"/>
      <point x="1048" y="432"/>
      <point x="688" y="-30"/>
      <point x="459" y="-30" type="qcurve" smooth="yes"/>
      <point x="227" y="-30"/>
      <point x="14" y="399"/>
    </contour>
    <contour>
      <point x="265" y="772" type="qcurve" smooth="yes"/>
      <point x="215" y="481"/>
      <point x="325" y="83"/>
      <point x="472" y="83" type="qcurve" smooth="yes"/>
      <point x="631" y="83"/>
      <point x="864" y="447"/>
      <point x="919" y="746" type="qcurve" smooth="yes"/>
      <point x="970" y="1027"/>
      <point x="854" y="1390"/>
      <point x="705" y="1390" type="qcurve" smooth="yes"/>
      <point x="544" y="1390"/>
      <point x="315" y="1060"/>
    </contour>
  </outline>
</glyph>
